HIERARCHY
ROOT Hips
{
     OFFSET 1.88212 96.90440 -13.34250
     CHANNELS 6 Xposition Yposition Zposition Zrotation Xrotation Yrotation
     JOINT Spine
     {
          OFFSET 0.00000 11.89050 0.00000
          CHANNELS 3 Zrotation Xrotation Yrotation
          JOINT Spine1
          {
               OFFSET -0.00000 25.65740 0.12766
               CHANNELS 3 Zrotation Xrotation Yrotation
               JOINT HEad
               {
                    OFFSET 0.00000 8.73416 0.01134
                    CHANNELS 3 Zrotation Xrotation Yrotation
                    End Site
                    {
                         OFFSET -0.29000 12.77420 2.51395
                    }
               }
               JOINT LeftShoulder1
               {
                    OFFSET 8.99000 -0.36225 -0.22000
                    CHANNELS 3 Zrotation Xrotation Yrotation
                    JOINT LeftArm
                    {
                         OFFSET 10.28270 -0.00338 0.32212
                         CHANNELS 3 Zrotation Xrotation Yrotation
                         JOINT LeftForeArm
                         {
                              OFFSET 32.76690 0.09914 -1.42434
                              CHANNELS 3 Zrotation Xrotation Yrotation
                              JOINT LeftHand
                              {
                                   OFFSET 27.56430 0.08536 1.02216
                                   CHANNELS 3 Zrotation Xrotation Yrotation
                                   End Site
                                   {
                                        OFFSET 16.74430 -0.60000 1.50291
                                   }
                              }
                         }
                    }
               }
               JOINT RightShoulder
               {
                    OFFSET -8.99000 -0.36225 -0.22000
                    CHANNELS 3 Zrotation Xrotation Yrotation
                    JOINT RightArm
                    {
                         OFFSET -10.28270 -0.00338 0.32212
                         CHANNELS 3 Zrotation Xrotation Yrotation
                         JOINT RightForeArm
                         {
                              OFFSET -32.89710 0.09914 -1.42434
                              CHANNELS 3 Zrotation Xrotation Yrotation
                              JOINT RightHand
                              {
                                   OFFSET -27.49210 0.08536 1.02216
                                   CHANNELS 3 Zrotation Xrotation Yrotation
                                   End Site
                                   {
                                        OFFSET -16.63120 -0.60000 1.50291
                                   }
                              }
                         }
                    }
               }
          }
     }
     JOINT LeftUpLeg
     {
          OFFSET 8.94580 -8.66707 0.10165
          CHANNELS 3 Zrotation Xrotation Yrotation
          JOINT LeftLeg
          {
               OFFSET 0.00000 -44.42270 1.37270
               CHANNELS 3 Zrotation Xrotation Yrotation
               JOINT LeftFoot
               {
                    OFFSET -0.25355 -42.09240 -1.46059
                    CHANNELS 3 Zrotation Xrotation Yrotation
                    JOINT LeftToes
                    {
                         OFFSET -0.04000 -4.41509 8.49910
                         CHANNELS 3 Zrotation Xrotation Yrotation
                         End Site
                         {
                              OFFSET 0.08000 -0.04745 9.77979
                         }
                    }
               }
          }
     }
     JOINT RightUpLeg
     {
          OFFSET -8.94580 -8.66707 0.10165
          CHANNELS 3 Zrotation Xrotation Yrotation
          JOINT RightLeg
          {
               OFFSET 0.00000 -44.42270 1.37270
               CHANNELS 3 Zrotation Xrotation Yrotation
               JOINT RightFoot
               {
                    OFFSET 0.25355 -42.09240 -1.46059
                    CHANNELS 3 Zrotation Xrotation Yrotation
                    JOINT RightToes
                    {
                         OFFSET 0.04000 -4.41509 8.49910
                         CHANNELS 3 Zrotation Xrotation Yrotation
                         End Site
                         {
                              OFFSET -0.08000 -0.13745 9.77979
                         }
                    }
               }
          }
     }
}
MOTION
Frames: 20
Frame Time: 0.01667
38.96003 23.89252 -146.47299 7.21460 -36.93242 -36.54204 -11.66070 42.13960 17.35214 0.01537 0.02083 0.00214 -35.19933 27.60189 40.26866 0.93575 13.33613 -0.60929 -119.40701 -16.25402 -80.01616 -59.62565 44.62205 -76.95746 20.80402 -6.89959 -68.28011 13.89012 16.05903 14.27670 54.21191 22.48041 85.14627 56.30635 13.83731 70.41309 -3.97755 9.50391 45.21669 39.12317 -53.81804 45.27995 -231.84541 59.79352 235.46651 -22.43362 0.00537 -0.00111 0.30189 11.12520 -2.22806 -54.40297 -43.96014 -6.85090 187.64189 23.00597 -189.15053 82.33145 0.01023 0.01101 -33.17664 -53.42723 41.56133 
39.00186 25.15941 -146.07906 7.51720 -36.77769 -35.99536 -11.75959 41.37887 16.64590 0.01577 0.02397 0.00437 -34.69672 27.38530 40.53178 0.88912 14.03527 -0.18973 -119.13164 -16.25490 -79.73786 -59.48188 44.73050 -77.01484 20.62634 -6.91573 -68.56326 14.20572 16.88159 14.59090 53.88382 22.06347 84.82433 56.37195 14.05161 70.66503 -3.85220 9.54562 45.39122 37.83482 -53.07474 43.95910 -230.13895 62.20365 234.37180 -20.18892 -0.00061 0.00033 0.68988 10.52659 -3.10872 -54.64233 -42.02218 -5.45106 187.51701 25.78073 -188.43925 80.55624 0.01160 0.01547 -31.41478 -52.46784 41.05845 
39.09836 26.73419 -145.55392 7.84841 -36.55054 -35.39071 -11.74292 40.82503 15.88355 0.01265 0.02263 0.00492 -34.26785 26.98207 40.60086 0.70337 14.50127 0.26786 -118.88530 -16.20328 -79.55109 -59.37978 44.75886 -77.04257 20.62296 -6.97334 -68.75863 14.21822 17.47032 15.02910 53.68620 21.60038 84.63297 56.42668 14.14011 70.88454 -3.66818 9.51888 45.43342 36.43476 -52.26551 42.30579 -229.29417 63.86454 233.75174 -19.02805 0.00328 0.00006 1.10909 9.48587 -3.87975 -54.83675 -40.00262 -4.75571 187.58034 28.65308 -188.46346 78.95861 0.01115 0.01542 -29.72154 -51.29657 40.78501 
39.22526 28.40074 -144.98750 8.16939 -36.25881 -34.75353 -11.92849 41.61105 15.47138 0.01723 0.11531 0.01763 -33.56601 25.44566 39.54804 0.37376 13.46763 0.62898 -118.65689 -16.07612 -79.37748 -59.32377 44.80418 -77.06272 20.51266 -6.92336 -69.00789 13.94926 16.55566 15.57221 53.52046 21.28246 84.59522 56.42677 14.18157 71.06454 -3.39752 9.57400 45.64899 34.68559 -51.38222 40.16133 -228.82965 65.45200 233.47607 -18.32048 0.00295 -0.00128 1.48783 8.34544 -4.52302 -54.90222 -37.95192 -4.69451 187.88969 31.60443 -189.14789 77.55254 0.01081 0.01321 -28.27486 -50.10982 40.33489 
39.39432 30.48697 -144.35760 8.67735 -33.92571 -33.36910 -10.14572 40.70811 13.74277 0.00765 0.01190 0.00395 -33.04595 24.09091 38.69118 -0.03865 12.67415 1.12232 -118.43300 -15.88608 -79.24859 -59.28901 44.82587 -77.14941 20.59074 -6.74512 -68.95969 13.45167 15.87123 16.16409 53.52859 21.01574 84.72567 56.37726 14.18065 71.20169 -2.80296 9.68121 45.59072 34.39656 -52.12983 38.55597 -226.78897 68.62312 232.02386 -16.29336 -0.00472 0.00097 1.74240 7.67861 -5.28851 -55.03555 -36.33863 -7.22781 188.28918 34.83836 -190.26933 76.26100 0.01275 0.01064 -27.04991 -48.91690 39.65004 
39.57702 32.68438 -143.74396 9.03233 -31.92900 -32.15586 -8.57603 39.97873 12.25032 0.00670 0.00489 0.00328 -32.61089 22.72135 37.82299 -0.49991 11.84859 1.62795 -118.22009 -15.70829 -79.15230 -59.24366 44.89748 -77.29023 20.66488 -6.55011 -68.84530 12.87735 15.13755 16.69254 53.55207 20.86868 84.99291 56.26120 14.19685 71.28687 -2.51945 9.89801 45.69104 33.57558 -52.40120 36.48091 -225.79839 71.31974 231.36665 -15.25111 -0.00211 -0.00173 1.82204 7.05956 -5.74214 -54.67579 -34.62440 -9.53819 188.76848 38.34206 -191.71727 75.05259 0.01517 0.00929 -26.46589 -47.70403 38.43845 
39.75849 35.32723 -143.08226 9.24305 -30.19119 -31.08929 -7.17209 39.35853 10.98959 0.00353 0.00364 0.00405 -32.22319 21.39167 36.99492 -1.01757 11.04253 2.22060 -117.92046 -15.60329 -79.09085 -59.00486 44.93253 -77.64635 21.40528 -5.92870 -67.95069 12.03172 14.37335 17.21332 53.76534 20.76429 85.45890 55.94349 14.26029 71.35165 -2.38666 10.40277 45.16067 32.08625 -52.17585 33.83796 -226.10251 74.15446 231.95792 -15.00412 -0.00530 -0.00613 1.58913 6.78632 -5.86436 -53.89591 -32.78735 -11.51994 189.28847 42.30704 -193.33421 73.90138 0.01888 0.00896 -26.28952 -46.46415 36.96961 
39.91442 38.03796 -142.43672 9.30867 -28.66437 -30.15619 -5.90420 38.81490 9.95375 0.00352 0.00313 0.00432 -31.85492 20.10080 36.20631 -1.51380 10.28732 2.79028 -117.59770 -15.64513 -79.11472 -58.47306 45.00667 -78.18497 22.22966 -5.64674 -67.10327 11.16512 13.62212 17.62713 53.95838 20.68184 86.06239 55.35609 14.41592 71.41608 -2.96954 10.66343 45.00697 30.04815 -51.46313 30.73746 -228.25307 77.25131 234.43607 -14.67311 -0.00668 -0.00527 1.41034 6.49305 -5.88585 -52.83299 -30.87916 -13.17514 189.92909 46.67362 -195.05452 72.82328 0.02113 0.00958 -26.64667 -44.99948 35.11824 
40.04408 41.20628 -141.68871 9.23658 -27.25397 -29.34078 -4.96148 37.84712 9.24730 0.00314 0.00754 0.00696 -31.28784 19.14016 35.67970 -1.91098 9.84520 3.43361 -116.97498 -16.28683 -79.19218 -51.50412 45.54351 -83.33636 34.71394 6.11143 -58.71004 10.14720 13.04935 18.03709 54.56518 20.15405 86.87048 50.36931 17.07917 72.93804 -12.98972 23.04191 35.58166 27.55862 -50.21968 27.27926 -234.49121 80.66340 241.11554 -14.42552 -0.00833 -0.00496 1.15562 6.18910 -5.81859 -51.58695 -28.81742 -14.40510 190.57829 51.65277 -196.66074 71.75301 0.02494 0.01092 -27.26735 -43.30205 33.17529 
40.14112 44.43254 -140.90903 9.04104 -25.91852 -28.62625 -4.31141 36.52336 8.83765 0.00620 0.01216 0.00810 -30.50859 18.43867 35.35065 -1.88677 9.71881 3.97315 -116.50797 -17.21068 -79.60969 -40.86216 45.61204 -90.61716 30.55103 -6.75059 -57.73476 9.51867 12.80170 18.43542 55.08894 19.29658 87.57130 42.45178 20.57418 75.50709 -11.83238 6.27041 40.19962 24.89239 -48.46701 23.73531 -252.14561 83.95973 259.30737 -13.95813 -0.00815 -0.00370 0.94400 5.95763 -5.68930 -50.27274 -26.60134 -15.08912 190.94447 57.23286 -197.75270 70.64214 0.02878 0.01349 -28.20502 -41.31933 30.97893 
40.22425 48.16489 -139.93774 8.33619 -22.61626 -27.69107 -2.30644 33.30954 8.02616 0.00409 0.01402 0.00806 -29.23957 16.39487 34.97319 -1.92650 9.66789 4.47298 -117.02099 -20.63792 -83.75457 -33.88172 44.62991 -93.92352 43.64503 7.77859 -43.76920 8.92110 12.58038 18.81225 56.03117 18.26478 88.33852 32.69460 23.73994 79.61234 -25.99205 18.55457 23.07030 23.68138 -47.87195 20.58812 -299.39587 85.39645 307.19333 -13.43033 -0.00917 -0.00335 0.65484 5.80051 -5.49899 -48.30457 -24.87074 -16.63547 190.01929 63.65011 -197.40779 69.34018 0.03777 0.01872 -29.28579 -39.03767 28.71182 
40.29638 51.93081 -138.90324 7.61549 -19.72217 -26.86808 -0.69878 30.48386 7.53825 0.00434 0.01282 0.00727 -27.74790 12.87508 34.34323 -2.01569 9.46328 4.79726 -117.06925 -23.39254 -86.38438 -23.63733 43.74165 -100.02858 43.76815 16.54717 -38.78722 8.26788 12.17808 19.10368 57.11811 16.93632 89.22474 21.82797 25.95138 85.00948 -29.29494 22.93979 22.65547 22.25050 -46.57642 17.58377 -340.01886 82.70755 348.47812 -12.77904 -0.00875 -0.00375 0.32773 5.93074 -5.20808 -46.33053 -22.90372 -16.99985 186.08368 70.75166 -193.95108 67.81405 0.04731 0.02650 -30.35962 -36.16403 26.34405 
40.40953 56.18387 -137.64685 6.88169 -17.12897 -26.15904 0.60244 27.93564 7.31966 0.00144 0.01051 0.00662 -26.32100 9.64911 33.71064 -2.03574 9.02270 4.95382 -116.64197 -25.71800 -88.07364 -11.71074 42.05709 -106.97813 45.47002 -2.27319 -28.38704 7.74257 11.60398 19.34054 58.31863 15.54547 89.89108 10.05772 27.75021 90.97595 -39.46865 17.26631 -0.10906 20.67134 -44.61059 14.83459 -354.09036 78.03889 363.23148 -12.19502 0.00002 -0.00233 -0.24191 6.48280 -4.62098 -44.33369 -20.66138 -16.23908 173.40356 79.15182 -183.12694 57.92265 0.22563 0.38256 -22.85869 -30.82642 23.88195 
40.58284 60.43014 -136.33411 6.13766 -14.79315 -25.56236 1.66676 25.62580 7.32086 0.00346 0.00840 0.00586 -24.96399 6.71908 33.07841 -1.97105 8.52341 5.04458 -115.88670 -27.60948 -89.21336 0.81822 39.37249 -113.81081 38.90516 16.16598 -18.11305 7.38785 11.00058 19.43476 59.49331 14.12293 90.37774 -2.44609 29.15194 97.62555 -35.28537 5.50707 -2.08671 19.07673 -42.06441 12.50661 -359.01834 72.50920 368.82358 -11.61690 0.00040 -0.00289 -0.58785 7.27482 -3.88504 -42.31020 -18.09016 -14.44351 112.52473 84.16010 -123.68764 47.94529 0.22936 0.40809 -15.12619 -25.60537 21.76054 
40.88096 65.05884 -134.78217 5.18895 -12.17918 -25.03513 2.95255 23.13663 7.44429 0.00256 0.00750 0.00670 -23.65035 4.09104 32.43793 -1.91771 7.84862 5.06395 -114.72703 -29.26238 -89.94645 6.83683 37.15950 -116.52077 45.46721 6.36315 -18.63199 7.24092 10.28897 19.59946 60.69514 12.49389 90.37051 -9.11971 29.26415 101.16009 -39.57480 3.52111 -11.44249 17.83705 -39.31802 10.72416 -360.48624 66.21847 370.92850 -10.97460 0.00075 -0.00446 -1.00196 8.53652 -2.73748 -39.83976 -15.27153 -11.99236 51.27619 77.32071 -64.37616 43.47191 0.04589 0.27501 -12.81894 -18.22969 19.29351 
41.27238 69.53325 -133.17523 4.26179 -9.77627 -24.58328 4.06201 20.81504 7.72141 0.00525 0.00573 0.00555 -22.40292 1.76582 31.79887 -1.81172 7.18073 4.97491 -113.47124 -30.42955 -90.48070 9.70971 36.03137 -117.42711 39.92525 4.79829 -12.49284 7.32783 9.63480 19.60460 61.72416 10.98392 90.01192 -12.22549 29.28559 103.10069 -37.15869 -1.33766 -9.55421 16.59183 -36.10899 9.56646 -360.17932 59.38205 371.12662 -10.41480 -0.00003 -0.00584 -1.20233 9.98835 -1.57590 -37.13539 -11.94166 -8.65345 39.17492 67.14559 -54.90478 37.06183 0.02178 0.31900 -7.90320 -12.14818 17.88668 
41.75080 74.03535 -131.35442 3.40953 -7.65438 -24.18456 4.93730 18.69050 8.10460 0.00558 0.00468 0.00499 -21.21243 -0.25951 31.15513 -1.82365 6.46654 4.82233 -111.99829 -31.23779 -90.84338 10.84531 35.45564 -117.45673 44.13518 1.62685 -13.12730 7.66213 9.02116 19.52824 62.55152 9.57755 89.18782 -13.29956 29.38280 104.12504 -39.56444 -0.15768 -13.52120 15.21746 -32.43058 9.07143 -358.91650 51.99541 370.18207 -9.97620 -0.00037 -0.00610 -1.42429 11.83170 -0.24163 -34.25769 -8.08815 -4.58984 33.15501 56.15961 -51.58124 32.70708 0.01685 0.25246 -5.09548 -6.61885 16.99741 
42.23681 78.17567 -129.47086 2.62649 -5.80946 -23.81862 5.61107 16.75572 8.53197 0.00785 0.00325 0.00329 -20.08852 -1.98786 30.51865 -1.87038 5.85256 4.59831 -110.52791 -31.67221 -91.14539 11.25555 35.33189 -117.18822 40.63077 1.91635 -10.40144 8.15668 8.53502 19.27650 63.18201 8.43394 88.11504 -13.39173 29.62914 104.94949 -37.94359 -1.56051 -11.27341 13.73763 -28.40819 9.27114 -357.13437 44.16430 368.45630 -9.73167 -0.00135 -0.00432 -1.40900 13.85017 1.13022 -31.20213 -3.77060 -0.00314 27.81107 44.59201 -47.33673 29.18875 0.09133 0.18005 -2.73790 -2.36899 13.35911 
42.74757 82.03941 -127.44450 1.89583 -4.21688 -23.47077 6.10988 14.98269 8.95853 0.00776 0.00255 0.00169 -19.02031 -3.42704 29.89761 -1.98002 5.32939 4.34643 -109.02959 -31.85903 -91.42656 11.26228 35.31143 -116.84135 43.08059 1.28688 -10.91048 8.79021 8.16152 18.88433 63.70131 7.51282 86.86366 -13.19406 29.96895 105.86983 -39.44430 0.88427 -13.11459 12.52144 -24.98570 9.68375 -355.74252 37.03391 366.87231 -9.71166 -0.00287 -0.00060 -1.15725 15.83067 2.62861 -27.82074 0.92284 4.80369 22.76520 33.15096 -42.57873 28.43755 -0.00056 0.07920 -4.30742 1.47636 24.17492 
43.25157 85.46669 -125.44179 1.17248 -2.74575 -23.11219 6.54751 13.26693 9.35960 0.00485 0.00076 -0.00024 -17.98415 -4.76576 29.28600 -2.20321 4.87248 4.15774 -107.42406 -31.94931 -91.58540 11.27373 35.29976 -116.66366 44.14744 1.17354 -10.74940 9.58362 7.89816 18.40729 64.03988 6.68836 85.48867 -13.11852 30.32853 107.04701 -40.14172 2.68180 -14.03951 11.46038 -21.80614 10.24100 -354.57510 30.10208 365.34235 -9.82210 -0.00152 0.00245 -0.94640 17.94724 4.16932 -24.82714 5.49798 9.40575 18.22070 22.13460 -38.83055 27.99689 0.00881 0.02361 -4.87683 4.62261 27.60757 
